<?xml version="1.0" encoding="utf-8"?>
<!-- Generator: Adobe Illustrator 19.0.0, SVG Export Plug-In . SVG Version: 6.00 Build 0)  -->
<svg version="1.1" id="Layer_1" xmlns="http://www.w3.org/2000/svg" xmlns:xlink="http://www.w3.org/1999/xlink" x="0px" y="0px"
	 width="46.8px" height="46.8px" viewBox="669.5 263.5 46.8 46.8" style="enable-background:new 669.5 263.5 46.8 46.8;"
	 xml:space="preserve">
<style type="text/css">
	.st0{fill:#FFFFFF;}
</style>
<path class="st0" d="M693,310.3c-12.9,0-23.4-10.5-23.4-23.4s10.5-23.4,23.4-23.4c12.9,0,23.4,10.5,23.4,23.4S705.9,310.3,693,310.3
	z M693,269.4c-9.7,0-17.6,7.9-17.6,17.6c0,9.7,7.9,17.6,17.6,17.6c9.7,0,17.6-7.9,17.6-17.6C710.5,277.2,702.7,269.4,693,269.4z
	 M695.9,298.6H690v-8.8h-8.8V284h8.8v-8.8h5.9v8.8h8.8v5.9h-8.8V298.6z"/>
</svg>
