<?xml version="1.0" encoding="utf-8"?>
<!-- Generator: Adobe Illustrator 19.0.0, SVG Export Plug-In . SVG Version: 6.00 Build 0)  -->
<svg version="1.1" id="Layer_1" xmlns="http://www.w3.org/2000/svg" xmlns:xlink="http://www.w3.org/1999/xlink" x="0px" y="0px"
	 width="98.3px" height="85.5px" viewBox="-216.8 349.2 98.3 85.5" style="enable-background:new -216.8 349.2 98.3 85.5;"
	 xml:space="preserve">
<style type="text/css">
	.st0{fill:#FFFFFF;}
</style>
<path class="st0" d="M-127.1,415.5h-29.5c1.3,7.1,5.5,11.9,9.4,15h5.1c1.2,0,2.1,1,2.1,2.1s-1,2.1-2.1,2.1h-51.3
	c-1.2,0-2.1-1-2.1-2.1s1-2.1,2.1-2.1h5.1c3.9-3.1,8.1-7.9,9.4-15h-29.5c-4.7,0-8.6-3.8-8.6-8.6v-49.2c0-4.7,3.8-8.6,8.6-8.6h81.2
	c4.7,0,8.6,3.8,8.6,8.6v49.2C-118.5,411.7-122.3,415.5-127.1,415.5z M-181.8,430.5h28.2c-3.4-3.6-6.4-8.5-7.4-15h-13.4
	C-175.3,422-178.4,426.9-181.8,430.5z M-122.8,357.8c0-2.4-1.9-4.3-4.3-4.3h-81.2c-2.4,0-4.3,1.9-4.3,4.3v40.6l0,0h89.8V357.8z
	 M-122.8,402.7h-89.8l0,0v4.3c0,2.4,1.9,4.3,4.3,4.3h29.9l0,0h21.4l0,0h29.9c2.4,0,4.3-1.9,4.3-4.3V402.7z M-167.7,409.1
	c-1.2,0-2.1-1-2.1-2.1c0-1.2,1-2.1,2.1-2.1c1.2,0,2.1,1,2.1,2.1C-165.5,408.1-166.5,409.1-167.7,409.1z"/>
</svg>
