<?xml version="1.0" encoding="utf-8"?>
<!-- Generator: Adobe Illustrator 19.0.0, SVG Export Plug-In . SVG Version: 6.00 Build 0)  -->
<svg version="1.1" id="Layer_1" xmlns="http://www.w3.org/2000/svg" xmlns:xlink="http://www.w3.org/1999/xlink" x="0px" y="0px"
	 width="55.7px" height="98.5px" viewBox="-242.9 370 55.7 98.5" style="enable-background:new -242.9 370 55.7 98.5;"
	 xml:space="preserve">
<style type="text/css">
	.st0{fill:#FFFFFF;}
</style>
<path class="st0" d="M-195.8,468.5h-38.5c-4.7,0-8.6-3.8-8.6-8.6v-81.4c0-4.7,3.8-8.6,8.6-8.6h38.5c4.7,0,8.6,3.8,8.6,8.6v81.4
	C-187.2,464.7-191.1,468.5-195.8,468.5z M-191.5,378.6c0-2.4-1.9-4.3-4.3-4.3h-38.5c-2.4,0-4.3,1.9-4.3,4.3v8.6h47.1V378.6z
	 M-191.5,391.4h-47.1v55.7h47.1V391.4z M-191.5,451.4h-47.1v8.6c0,2.4,1.9,4.3,4.3,4.3h38.5c2.4,0,4.3-1.9,4.3-4.3V451.4z
	 M-215.1,462.1c-2.4,0-4.3-1.9-4.3-4.3c0-2.4,1.9-4.3,4.3-4.3s4.3,1.9,4.3,4.3C-210.8,460.2-212.7,462.1-215.1,462.1z M-230,397.8
	h4.3c1.2,0,2.1,1,2.1,2.1v4.3c0,1.2-1,2.1-2.1,2.1h-4.3c-1.2,0-2.1-1-2.1-2.1V400C-232.2,398.8-231.2,397.8-230,397.8z M-230,412.8
	h4.3c1.2,0,2.1,1,2.1,2.1v4.3c0,1.2-1,2.1-2.1,2.1h-4.3c-1.2,0-2.1-1-2.1-2.1V415C-232.2,413.8-231.2,412.8-230,412.8z M-230,427.8
	h4.3c1.2,0,2.1,1,2.1,2.1v4.3c0,1.2-1,2.1-2.1,2.1h-4.3c-1.2,0-2.1-1-2.1-2.1V430C-232.2,428.8-231.2,427.8-230,427.8z
	 M-217.2,397.8h4.3c1.2,0,2.1,1,2.1,2.1v4.3c0,1.2-1,2.1-2.1,2.1h-4.3c-1.2,0-2.1-1-2.1-2.1V400
	C-219.3,398.8-218.4,397.8-217.2,397.8z M-217.2,412.8h4.3c1.2,0,2.1,1,2.1,2.1v4.3c0,1.2-1,2.1-2.1,2.1h-4.3c-1.2,0-2.1-1-2.1-2.1
	V415C-219.3,413.8-218.4,412.8-217.2,412.8z M-217.2,427.8h4.3c1.2,0,2.1,1,2.1,2.1v4.3c0,1.2-1,2.1-2.1,2.1h-4.3
	c-1.2,0-2.1-1-2.1-2.1V430C-219.3,428.8-218.4,427.8-217.2,427.8z M-204.3,397.8h4.3c1.2,0,2.1,1,2.1,2.1v4.3c0,1.2-1,2.1-2.1,2.1
	h-4.3c-1.2,0-2.1-1-2.1-2.1V400C-206.5,398.8-205.5,397.8-204.3,397.8z M-204.3,412.8h4.3c1.2,0,2.1,1,2.1,2.1v4.3
	c0,1.2-1,2.1-2.1,2.1h-4.3c-1.2,0-2.1-1-2.1-2.1V415C-206.5,413.8-205.5,412.8-204.3,412.8z M-221.5,378.6h12.8c1.2,0,2.1,1,2.1,2.1
	c0,1.2-1,2.1-2.1,2.1h-12.8c-1.2,0-2.1-1-2.1-2.1C-223.6,379.5-222.7,378.6-221.5,378.6z"/>
</svg>
