<?xml version="1.0" encoding="utf-8"?>
<!-- Generator: Adobe Illustrator 19.0.0, SVG Export Plug-In . SVG Version: 6.00 Build 0)  -->
<svg version="1.1" id="Layer_1" xmlns="http://www.w3.org/2000/svg" xmlns:xlink="http://www.w3.org/1999/xlink" x="0px" y="0px"
	 width="77.4px" height="90.3px" viewBox="-219.8 380 77.4 90.3" style="enable-background:new -219.8 380 77.4 90.3;"
	 xml:space="preserve">
<style type="text/css">
	.st0{fill:#FFFFFF;}
</style>
<path class="st0" d="M-152.4,405.8c6.1,6.8,9.9,15.9,9.9,25.8c0,21.4-17.3,38.7-38.7,38.7s-38.7-17.3-38.7-38.7
	c0-19.2,13.9-35,32.2-38.1v-9.2h-4.3c-1.2,0-2.1-1-2.1-2.1c0-1.2,1-2.1,2.1-2.1h21.5c1.2,0,2.1,1,2.1,2.1c0,1.2-1,2.1-2.1,2.1h-4.3
	v9.2c7.4,1.2,14,4.6,19.4,9.3l5-5c0.8-0.8,2.1-0.8,3,0c0.8,0.8,0.8,2.1,0,3L-152.4,405.8z M-179,384.3h-4.3v8.7
	c0.7,0,1.4-0.1,2.1-0.1c0.7,0,1.4,0.1,2.1,0.1V384.3z M-181.1,397.2c-19,0-34.4,15.4-34.4,34.4c0,19,15.4,34.4,34.4,34.4
	c19,0,34.4-15.4,34.4-34.4C-146.7,412.6-162.1,397.2-181.1,397.2z M-181.1,440.2c-4.7,0-8.6-3.8-8.6-8.6c0-1.6,0.5-3.1,1.2-4.4
	l-11.4-11.4c-0.8-0.8-0.8-2.1,0-3c0.8-0.8,2.1-0.8,3,0l11.4,11.4c1.3-0.8,2.8-1.2,4.4-1.2c4.7,0,8.6,3.8,8.6,8.6
	C-172.5,436.3-176.4,440.2-181.1,440.2z M-181.1,427.3c-2.4,0-4.3,1.9-4.3,4.3s1.9,4.3,4.3,4.3s4.3-1.9,4.3-4.3
	S-178.7,427.3-181.1,427.3z"/>
</svg>
