<?xml version="1.0" encoding="utf-8"?>
<!-- Generator: Adobe Illustrator 19.0.0, SVG Export Plug-In . SVG Version: 6.00 Build 0)  -->
<svg version="1.1" id="Layer_1" xmlns="http://www.w3.org/2000/svg" xmlns:xlink="http://www.w3.org/1999/xlink" x="0px" y="0px"
	 width="90px" height="90px" viewBox="-168.8 356.1 90 90" style="enable-background:new -168.8 356.1 90 90;" xml:space="preserve"
	>
<style type="text/css">
	.st0{fill:#FFFFFF;}
</style>
<path class="st0" d="M-123.8,446c-24.8,0-45-20.1-45-45s20.1-45,45-45s45,20.1,45,45S-99,446-123.8,446z M-98.9,433.2
	c-0.3-0.5-0.8-1.1-1.1-1.6c-0.6-0.8-1.2-1.7-1.7-2.5c0,0-3-4-13.5-4.5c-3.7,0-6.4-2.8-6.4-6.6l-0.1-2c0-0.3,0,0.3,0,0v-2.1l2.1-2.1
	c1.6-0.7,3.6-1.9,5.1-3.1l0.3-0.2c1.2-0.8,3-2.5,3.1-3.1l0.1-0.8c0.8-4.1,2.1-11.6,2.1-14.2c0-10.1-4.9-15-15-15
	c-10.2,0-15,4.8-15,15c0,2.6,1.3,10.1,2.1,14.2l0.1,0.8c0.1,0.7,1.7,2.3,3.1,3.1l0.2,0.1c1.7,1.2,3.7,2.5,5.3,3.2l2.1,2.1v2.1
	c0,0.3,0-0.3,0,0l-0.1,2c0,3.8-2.7,6.6-6.2,6.6c0,0,0,0,0,0c-10.6,0.4-13.7,4.4-13.7,4.4c-0.5,0.8-1.1,1.7-1.7,2.5
	c-0.3,0.5-0.8,1.1-1.1,1.6c6.9,5.4,15.5,8.6,24.9,8.6S-105.8,438.5-98.9,433.2z M-123.8,360.3c-22.5,0-40.7,18.2-40.7,40.7
	c0,11.5,4.8,21.9,12.5,29.3c0.8-1.2,1.7-2.4,2.5-3.6c0,0,3.6-5.9,17.1-6.4c1.4,0,2.1-0.9,2.1-2.3h0c0-1.1,0-2,0-2
	c0-0.3,0-0.5-0.1-0.8c-1.6-0.7-3.4-1.7-5.4-3.2c0,0-5.1-3.2-5.1-6.7c0,0-2.1-11-2.1-15c0-9.9,4.3-19.3,19.3-19.3
	c14.8,0,19.3,9.3,19.3,19.3c0,3.9-2.1,15-2.1,15c0,3.5-5.1,6.7-5.1,6.7c-2,1.5-3.9,2.6-5.4,3.3c0,0.2,0,0.4,0,0.7c0,0,0,0.9,0,2h0
	c0,1.4,0.7,2.3,2.1,2.3c13.8,0.6,17.1,6.4,17.1,6.4c0.8,1.2,1.6,2.4,2.5,3.6c7.7-7.4,12.5-17.8,12.5-29.3
	C-83.1,378.6-101.3,360.3-123.8,360.3z"/>
</svg>
