<?xml version="1.0" encoding="utf-8"?>
<!-- Generator: Adobe Illustrator 19.0.0, SVG Export Plug-In . SVG Version: 6.00 Build 0)  -->
<svg version="1.1" id="Layer_1" xmlns="http://www.w3.org/2000/svg" xmlns:xlink="http://www.w3.org/1999/xlink" x="0px" y="0px"
	 width="86px" height="123.6px" viewBox="-195 352 86 123.6" style="enable-background:new -195 352 86 123.6;"
	 xml:space="preserve">
<style type="text/css">
	.st0{fill:#9DC02E;}
</style>
<path class="st0" d="M-114.4,419.2c-0.1,0-0.2,0-0.4,0c-1.5,11-7.3,20.5-15.7,26.9v18.9c0,5.9-4.8,10.8-10.8,10.8h-26.9
	c-5.9,0-10.8-4.8-10.8-10.8V446c-9.8-7.4-16.1-19-16.1-32.2c0-13.2,6.4-24.8,16.1-32.2v-18.9c0-5.9,4.8-10.8,10.8-10.8h26.9
	c5.9,0,10.8,4.8,10.8,10.8v18.9c8.4,6.3,14.3,15.9,15.7,26.9c0.1,0,0.2,0,0.4,0c3,0,5.4,2.4,5.4,5.4S-111.4,419.2-114.4,419.2z
	 M-173.5,464.9c0,3,2.4,5.4,5.4,5.4h26.9c3,0,5.4-2.4,5.4-5.4v-15.4c-5.6,3-12,4.7-18.8,4.7s-13.2-1.7-18.8-4.7V464.9z
	 M-135.9,362.8c0-3-2.4-5.4-5.4-5.4h-26.9c-3,0-5.4,2.4-5.4,5.4v15.4c5.6-3,12-4.7,18.8-4.7s13.2,1.7,18.8,4.7V362.8z M-154.7,378.9
	c-19.3,0-34.9,15.6-34.9,34.9s15.6,34.9,34.9,34.9s34.9-15.6,34.9-34.9S-135.4,378.9-154.7,378.9z M-152,421.4V438
	c0,1.5-1.2,2.7-2.7,2.7s-2.7-1.2-2.7-2.7v-16.6c-3.1-1.1-5.4-4.1-5.4-7.6c0-1.3,0.3-2.4,0.8-3.5l-8.1-8.1c-1-1-1-2.7,0-3.7
	c1-1,2.7-1,3.7,0l8.1,8.1c1.1-0.5,2.2-0.8,3.5-0.8c4.5,0,8.1,3.6,8.1,8.1C-146.6,417.3-148.9,420.3-152,421.4z M-154.7,411.1
	c-1.5,0-2.7,1.2-2.7,2.7s1.2,2.7,2.7,2.7s2.7-1.2,2.7-2.7S-153.2,411.1-154.7,411.1z"/>
</svg>
